<?xml version="1.0" standalone="no"?>
<!DOCTYPE svg PUBLIC "-//W3C//DTD SVG 20010904//EN"
 "http://www.w3.org/TR/2001/REC-SVG-20010904/DTD/svg10.dtd">
<svg version="1.0" xmlns="http://www.w3.org/2000/svg"
 width="1280.000000pt" height="1013.000000pt" viewBox="0 0 1280.000000 1013.000000"
 preserveAspectRatio="xMidYMid meet">
<g transform="translate(0.000000,1013.000000) scale(0.100000,-0.100000)"
fill="#000000" stroke="none">
<path d="M352 9617 c-22 -23 -22 -26 -20 -348 l3 -323 80 -14 c154 -25 269
-87 396 -212 145 -142 253 -330 350 -607 16 -45 524 -1784 1129 -3864 605
-2080 1103 -3786 1106 -3790 7 -11 1161 -12 1168 -1 3 5 428 1432 946 3173
517 1740 946 3177 954 3194 12 28 14 28 23 10 6 -11 261 -1030 568 -2265 307
-1235 662 -2666 790 -3180 l232 -935 606 -3 605 -2 16 47 c8 27 522 1687 1140
3689 619 2003 1144 3692 1166 3755 55 151 174 392 249 505 174 263 400 423
686 487 l60 14 3 323 c2 321 2 324 -20 347 l-21 23 -1342 0 -1342 0 -21 -23
c-22 -23 -22 -26 -20 -347 l3 -324 145 -27 c274 -50 472 -105 594 -165 73 -36
147 -116 177 -192 21 -51 23 -74 23 -207 -1 -166 -22 -295 -88 -535 -94 -338
-1306 -4444 -1315 -4453 -7 -7 -13 -2 -20 14 -6 13 -270 1048 -586 2299 -317
1251 -594 2338 -615 2416 -44 164 -65 309 -57 400 17 182 137 297 385 370 85
25 350 74 398 74 l24 0 0 333 c0 311 -1 335 -18 350 -17 16 -166 17 -1944 17
l-1925 0 -21 -23 c-22 -23 -22 -26 -20 -347 l3 -324 110 -22 c156 -31 227 -50
330 -91 296 -116 457 -298 550 -618 52 -181 118 78 -635 -2500 -369 -1265
-674 -2302 -676 -2304 -2 -3 -9 0 -15 6 -6 6 -202 764 -435 1684 -836 3296
-814 3205 -814 3353 0 229 158 371 519 465 l106 28 3 323 c2 321 2 324 -20
347 l-21 23 -1807 0 -1807 0 -21 -23z"/>
</g>
</svg>
